<svg width='200' height='200' fill="#EC5D57" xmlns="http://www.w3.org/2000/svg" xmlns:xlink="http://www.w3.org/1999/xlink" version="1.1" x="0px" y="0px" viewBox="0 0 60 60" enable-background="new 0 0 60 60" xml:space="preserve"><g><polygon points="43.049,19.546 40.779,17.277 30,28.057 19.221,17.277 16.951,19.546 27.73,30.327 16.952,41.105 19.221,43.374    30,32.597 40.779,43.374 43.049,41.105 32.27,30.327  "></polygon></g><g><path d="M30,57.604c-15.152,0-27.479-12.327-27.479-27.479S14.848,2.646,30,2.646s27.479,12.327,27.479,27.479   S45.152,57.604,30,57.604z M30,5.854c-13.383,0-24.271,10.888-24.271,24.271S16.617,54.396,30,54.396s24.271-10.888,24.271-24.271   S43.383,5.854,30,5.854z"></path></g></svg>