<svg width='200' height='200' fill="#70C041" xmlns="http://www.w3.org/2000/svg" xmlns:xlink="http://www.w3.org/1999/xlink" version="1.1" x="0px" y="0px" viewBox="0 0 100 100" style="enable-background:new 0 0 100 100;" xml:space="preserve"><g><path d="M50,25.5c-13.8,0-25,11.2-25,25s11.2,25,25,25s25-11.2,25-25S63.8,25.5,50,25.5z M50,72.2c-12,0-21.7-9.7-21.7-21.7   c0-12,9.7-21.7,21.7-21.7c12,0,21.7,9.7,21.7,21.7C71.7,62.5,62,72.2,50,72.2z"></path><path d="M57.2,41.8l-9.5,13.9l-5.1-5.5c-0.6-0.7-1.7-0.7-2.3-0.1s-0.7,1.7-0.1,2.3l6.5,7c0.3,0.3,0.8,0.5,1.2,0.5c0,0,0.1,0,0.1,0   c0.5,0,1-0.3,1.2-0.7L60,43.7c0.5-0.8,0.3-1.8-0.4-2.3C58.8,40.8,57.7,41,57.2,41.8z"></path></g></svg>